<?xml version="1.0" ?><svg baseProfile="basic" id="Layer_1" version="1.1" viewBox="0 0 160 240" xml:space="preserve" xmlns="http://www.w3.org/2000/svg" xmlns:xlink="http://www.w3.org/1999/xlink"><g><path d="M104.2,229.8c-19.9,13.1-24.4-0.8-37.6-6.2c-15.2-6.3-27.5-9.3-19.8-18.3s21.3-10.2,34.2-0.4   C90.5,212.1,128.4,213.9,104.2,229.8z" opacity="0.2"/><path d="M58.8,192.8c0.1,2-0.8,6.2-3.4,8c-2.7,1.8-8.3,3.2-9.6,6.5c-1.3,3.3-0.4,6.5,3.2,6.9   c3.6,0.4,8.8-1.3,11.7-3.4c2.9-2.2,5-4.2,5-4.2l1.5,1.1c0,0,5.9-3.2,6.1-3.8c0.3-0.6-0.9-8.5-0.8-8.8c0.1-0.3,0-2.3,0-2.3H58.8z" fill="#825012"/><path d="M55.6,211.1c-4,1.9-8.9,1.3-10.3-1.6c-0.2,2.4,0.9,4.4,3.7,4.7c3.6,0.4,8.8-1.3,11.7-3.4   c2.9-2.2,5-4.2,5-4.2l1.5,1.1c0,0,5.9-3.2,6.1-3.8c0.1-0.3-0.1-2.7-0.4-4.8c-1,0.8-2.3,1.9-3.8,2.9C65.4,204.6,60.3,209,55.6,211.1   z" opacity="0.5"/><path d="M92.5,214.2c-1.1,3.4-6.1,7.4-8,10.3c-1.9,2.9-2.8,8.3,1.5,9.6c4.3,1.3,10.1-0.9,13.4-4.2s4.2-5.4,4.2-5.4   l1.9,0.4l4.2-4.2c0,0-0.6-5-0.8-6.5c-0.1-1.5-7.6-3.8-7.6-3.8L92.5,214.2z" fill="#825012"/><path d="M99.3,229.9c3.3-3.3,4.2-5.4,4.2-5.4l1.9,0.4l4.2-4.2c0,0-0.2-1.8-0.4-3.6c-3.1,1.8-6.5,6-8.7,8.9   c-2.3,3.1-4.5,4.9-10.7,5.7c-4.1,0.6-5.9-0.8-6.9-3.2c-0.3,2.4,0.4,4.7,3,5.5C90.3,235.4,96,233.2,99.3,229.9z" opacity="0.5"/><path d="M59.2,92.5c-0.4,1-3,4.4-3.1,5.5s-0.4,5.9-0.1,7s0.7,5.8,1.3,6c0.6,0.2,2.4-1.8,2.4-2.3s-0.6-2-0.1-3.1   c0.5-1,3.3-6.7,3.9-7.5s0.2-6.6,0.2-6.6L63.1,90l-3.7,0.9L59.2,92.5z" fill="#FBD7C7"/><path d="M59.2,92.3" fill="#3399CC"/><path d="M61.1,91.1l-1.9,0.4l-0.4-2.3c0,0-1.4-0.8-1.1-2.7c0.3-1.9,0.8-15.2,1.5-18.4S61,58,61.1,56.3   c0.1-1.7,1.1-8.5,3.1-9.9c1.9-1.4,11.2-2.3,18.4,0c7.2,2.3,13.6,4.4,15.3,5s8.7,3.6,12.6,10.7c4,7.1,14.4,22.7,14.9,23.7   c0.5,1,0.8,4.5-2.3,7.6c-3.1,3.2-9.7,11.9-12.6,14.1c-2.9,2.2-5.7,2.3-5.7,2.3l-2.3,2.3l-5.4-5.7l2.3-1.9c0,0-1-3.4,0.4-4.6   c1.4-1.1,11.2-11,11.1-11.5c-0.1-0.4-5.2-5.7-6.1-7.3c-1-1.5-3.4-4.2-3.4-4.2s-2.6,5.3-3.4,8c-0.8,2.7-0.4,16.4-0.4,16.4l-1.1,11.5   c0,0-16.1,7.5-22.9,5.4c-6.8-2.2-13.4-9.6-13.4-9.6L61.1,91.1z" fill="#CC291F"/><path d="M56.5,197.4c0,0,6.8,3.1,11.1,3.1s7.4-1,7.6-2.3s0.5-7.8,1.5-12.6c1-4.8,2.4-11.7,1.9-15.7   s-0.6-10.7-0.4-12.6c0.3-1.9,0.8-8,0.8-8s2,13.1,3.8,15.7c1.8,2.5,4.6,14.7,5,19.9c0.4,5.2,1.9,18.2,1.9,22.2s0.8,6.9,0.8,6.9   s6.6,3.3,9.6,3.4c2.9,0.1,9.7-0.5,10.3-3.8c0.6-3.3-0.9-18.2-1.9-25.6c-1-7.4-5.1-24.7-6.1-33.6c-1-8.9-2-27.1-2.2-33.6   c-0.1-1.9-0.6-10.6-1-15c-0.4-4.3-1.1-5.5-1.1-5.5s-2.1,1.2-4.5,1.7c-4.5,1-8,0.8-8,0.8S85.5,91.2,86,87c0.5-4.2,1.9-10,1.9-10   l-1.8-0.8c0,0,2.8-8.8,5.6-13.8c3.6-6.3,8.4-10.3,8.4-10.3l-4.3-1.8c0,0-5.2,4.6-8.3,10.6c-1.8,3.4-5.7,13.8-5.7,13.8l-15.7-4.6   c0,0,0.6-8.4,1.1-11.4c0.9-6.2,3.6-14.2,3.6-14.2l-4.2,0.8c0,0-2,4.1-3.2,12.3C62.6,62.2,61.9,69,61.9,69l-0.7-0.1   c0,0-0.7,16.8-0.8,22.6c-0.1,5.9-0.8,13.5-1.1,17.6s-1.7,19.6-1.5,28.7s0.9,12.9,0.8,19.9c-0.1,7-1.8,18.7-1.5,25.6   C57.2,190.2,56,196.8,56.5,197.4z" fill="#06547A"/><path d="M99.3,105.9c0,0-0.6,0.9-2.5,1.1c-1.9,0.2-3.9-0.2-5.8,1.1c-1.9,1.3-4.7,3.4-6.9,4   c-2.2,0.5-3.9,2.9-3.6,4.4s5.4,4.7,9.4,3.6c4-1.1,7.1-2.6,8.7-4c1.6-1.4,3-4.7,4-4.7C103.6,111.3,99.3,105.9,99.3,105.9z" fill="#FBD7C7"/><path d="M99.7,99.9c-1.4,1.1-0.4,4.6-0.4,4.6l-2.3,1.9l5.4,5.7l2.3-2.3c0,0,2.9-0.1,5.7-2.3c1.1-0.9,2.9-2.8,4.8-5   l-6.5-11.6C105.7,94.1,100.7,99.1,99.7,99.9z" fill="#CC291F"/><path d="M58,27.2c0-0.8,3.9-0.3,6.1-0.4c2.7-0.2,4.6-3.9,6.1-5.5s3.7-5.9,7.8-5.4s7.3,5.4,10,6.9   c2.7,1.5,3.5,2.9,3.3,5.4s-0.4,5.5-0.4,5.5s-3.3-5.3-8.7-4.1C71.7,32,58,27.2,58,27.2z" fill="#825012"/><path d="M57.8,27c-1.6,0.6,4.4,11.5,10,13.3s20.4,5.3,23.7,5s5.5-2.4,4.9-3.6s-0.4-0.1-2.5-3.3s-1.9-9.2-10.5-9.1   s-9.9,0.7-14.3,0S60.2,26.1,57.8,27z" fill="#825012"/><path d="M57.8,27c-1.6,0.6,4.4,11.5,10,13.3s20.4,5.3,23.7,5s5.5-2.4,4.9-3.6s-0.4-0.1-2.5-3.3s-1.9-9.2-10.5-9.1   s-9.9,0.7-14.3,0S60.2,26.1,57.8,27z" opacity="0.2"/><g><path d="M87.1,39.1c0-0.2,0-0.4,0-0.6c-0.1-0.5-0.6-1.3-2.3-1.3c-2.4,0.1-3.3,3.6-3.3,3.6    c-0.3,0.1-1.1-0.4-1.7-1.7c-0.6-1.3-1.9-5.2-2.3-6.5c-0.4-1.3-3.2-0.5-5-0.8c-1.4-0.2-4.3-0.4-5.3-2.2c-0.1,0-0.1,0-0.2,0    c-1.1,2.6-1.5,5.4-1.4,7.6C66,41,65.7,49.9,68,51s5.4,0,5.4,0s0.4,0.3,0,1.9C73,54.5,73,63.6,73,63.6s7-7.5,9.6-9.2    c2.6-1.7,6.3-5.1,6.1-5.7s-1.9-1.2-2.3-3.1c-0.4-1.8-0.2-3.1-0.2-3.1S87.1,40.4,87.1,39.1z" fill="#FBD7C7"/><path d="M72.6,31.9c1.8,0.3,4.6-0.6,5,0.8c0.4,1.3,1.7,5.2,2.3,6.5c0.6,1.3,1.4,1.8,1.7,1.7c0,0,0.9-3.5,3.3-3.6    c1.7-0.1,2.2,0.8,2.3,1.3c0.1,0.2,0.1,0.4,0.1,0.4s1.2-2.4,1.8-5.5c-0.2-0.3-0.3-0.5-0.6-0.7c-1.5-1-2.2-1.8-4.4-2    c-2.2-0.2-3.7-0.7-8.1-0.4c-3.2,0.2-6.5-0.4-8.6-0.7C68.2,31.5,71.1,31.7,72.6,31.9z" fill="#762C07"/></g></g></svg>