<?xml version="1.0" ?><svg baseProfile="basic" id="Layer_1" version="1.1" viewBox="0 0 80 240" xml:space="preserve" xmlns="http://www.w3.org/2000/svg" xmlns:xlink="http://www.w3.org/1999/xlink"><g><path d="M21.9,227.8c6,6.8,15.4,6.6,33.8,3.1c18.5-3.5,27.9-6.8,20.3-13c-7.6-6.2-21.3-5.8-32.4-3.1   C32.5,217.5,14.2,219.1,21.9,227.8z" opacity="0.2"/><path d="M13.1,108.3l7.8-4.1c0,0-3-8.3-3.9-9.8c-0.8-1.5-2.7-6-2.7-6s3.5-5,5.5-7.8s3.1-4,3.1-4s3.9,10.7,3.9,13.7   c-0.1,3-2.5,11.3-2.5,11.3s2.8,10.3,16.6,9.4c13.7-0.8,16-6.1,16-6.1S56.7,93.5,56.7,90s0-6.1,0-6.1s3.1-3.9,3.3-6.2s-0.1-3-0.1-3   s0.4,10.2,0.8,12.1c0.4,1.9,1.6,9.7,1.6,9.7l6.7-0.8c0,0,0.5-20.2-0.4-22.8c-0.8-2.6-5.7-11-7-13.9s-4.7-6.3-8.2-6.9   s-12.1-1.8-19.1,1.1S21.4,56.5,18,60.9S9.8,76.6,7.5,80.7c-2.3,4.2-3.9,7-1.8,12.3C7.9,98.3,13.1,108.3,13.1,108.3z" fill="#FF9900"/><path d="M24.7,97.3c0,0,5.9,2.4,10.3,1c3-1,7.4-11.5,5.9-17.6c-1.5-6.1-6.5-14.7-10.1-18.6c-2.9-3.1-8-5.4-8-5.4   l3.3-1.3c0,0,5.2,2.3,8.2,5.9c6.8,8.1,10.4,18.9,10.4,18.9l12.1-3c0,0-4.4-11.1-8.8-20.4c-1.1-2.2-3.7-5.7-3.7-5.7l3.9-0.1   c0,0,2,2.6,4.1,7.4s7.4,15.2,7.8,19.1c0.4,3.9-2.9,7.1-3.3,11.4c-0.4,4.3,0.4,15.4,1.3,19.2c0.8,3.8,4.8,19.1,6,29.4   c1,8.2,2.3,23.9,1.8,29.3c-0.5,5.4-1.9,13.3-1.2,21.9c0.7,8.6,0.8,22.3,0.8,22.3l-10.5,0.4c0,0-1.2-11.6-2-17.6   c-0.8-5.9-1.4-21.5-1.4-24.8s-4-16-6.3-22.6c-2.4-6.9-6.1-18.4-6.5-18.5s-0.6,11.8-1.2,19.9c-0.8,10.2-2.9,16.9-2.7,24.8   s-1.1,29.1-0.7,33.6c0.3,4.5-0.3,7-0.3,7l-9.1,0.5c0,0-4-12.6-3.8-21.1c0.2-8.6-0.3-21.9-0.6-27.7c-0.3-5.8-5.1-24.2-4.5-36.3   s3.9-23.1,5.5-25.6C23,100.6,24.7,97.3,24.7,97.3z" fill="#28896D"/><path d="M23,209.2c1.1,0.7,12.2-0.7,12.2-0.7s-1.1,7.9-0.6,10.2c0.5,2.3,4,10.7,0.7,12c-3.2,1.3-10.4,0.5-11.9-3   c-1.5-3.5,0.9-6.6,0.6-10.5C23.7,213.3,23,209.2,23,209.2z" fill="#825012"/><path d="M53.5,205.1c0.3,2,1.2,8.7,1,10.4c-0.3,1.7,1.9,3,4.1,3.9c2.2,0.9,5.1,3.3,7,4.8s6.8,2.1,9,1.1   c2.3-1,1.8-5.4-0.2-6.9c-2-1.5-4.9-2.2-6.1-6.1s-0.6-7.9-0.6-7.9s-3.6,1.5-6.8,1.7C57.7,206.3,53.5,205.1,53.5,205.1z" fill="#825012"/><path d="M62.7,96.4l6-0.8c0,0,0.7,7.3,0.6,9.2c-0.1,2-2.7,6.1-3.7,8.4s-3.1,7.8-5.6,8.2c-2.5,0.4-2.7-4.9-2-5.8   c0.7-0.9,1.6-5.6,2.7-7c1.1-1.4,2.8-2.6,2.8-3.7C63.6,103.8,62.7,96.4,62.7,96.4z" fill="#FBD7C7"/><path d="M13.4,108l6.8-3.4c0,0,3.5,9.4,3.9,10.4c0.5,1,3,1.4,4.2,3.3c1.1,1.9,3.4,8.7,2.5,10.1   c-0.8,1.4-4.2,2.7-5.8,1.7s-5.1-7.9-5.8-9.7c-0.7-1.8-0.9-2.3-1.6-4.5C17,113.6,13.4,108,13.4,108z" fill="#FBD7C7"/><path d="M54.5,214.9c0,0.2,0,0.4,0,0.6c-0.3,1.7,1.9,3,4.1,3.9c2.2,0.9,5.1,3.3,7,4.8c1.9,1.4,6.8,2.1,9,1.1   c0.7-0.3,1.2-1,1.4-1.8c-0.2,0.2-0.3,0.3-0.5,0.4c-2,1.6-6.4,1.1-8.8,0s-4.7-4.1-7.3-5.3C56.9,217.4,55.9,216.7,54.5,214.9z" opacity="0.5"/><path d="M23.4,227.7c1.5,3.5,8.7,4.3,11.9,3c1-0.4,1.3-1.4,1.4-2.7c-0.8,2-9.5,3.7-13.7-2   C23,226.5,23.2,227.1,23.4,227.7z" opacity="0.5"/><path d="M54.2,31.2c0-0.8-3.7-0.3-5.8-0.4c-2.5-0.2-4.4-3.7-5.7-5.2c-1.4-1.5-3.4-5-7.3-4.5c-3.9,0.5-7,4-9.8,4.8   c-3.3,0.9-3.3,4-3.1,6.4c0.2,2.4,0.4,5.2,0.4,5.2s3.4-5.2,8.5-4.1C41.3,35.7,54.2,31.2,54.2,31.2z" fill="#825012"/><path d="M54.3,30.9c1.6,0.6-4.1,10.9-9.4,12.6c-5.3,1.7-19.3,5-22.3,4.7s-5.2-2.3-4.6-3.4c0.6-1.1,0.4-0.1,2.4-3.1   s1.8-8.7,9.9-8.6c8.1,0.1,9.4,0.6,13.5,0S52,30,54.3,30.9z" fill="#825012"/><path d="M54.3,30.9c1.6,0.6-4.1,10.9-9.4,12.6c-5.3,1.7-19.3,5-22.3,4.7s-5.2-2.3-4.6-3.4c0.6-1.1,0.4-0.1,2.4-3.1   s1.8-8.7,9.9-8.6c8.1,0.1,9.4,0.6,13.5,0S52,30,54.3,30.9z" opacity="0.2"/><g><path d="M29.8,53.5c0.4-2.4,0.4-4.8-0.1-5.9c-0.4-1.1,0-1.8-0.8-2s-3.7-2-4-4.2c-0.2-1-0.1-1.6,0-2    c-1.6,0.6-3.9,2.9-4.1,7c-0.2,5,2.8,6.5,3.8,9.5c0,0,0,0,0,0c0.1,0,1.5-0.5,1.5-0.5l0.6,0.3l3-1C29.8,54.3,29.7,53.9,29.8,53.5z" fill="#762C07"/><path d="M45.3,57.4c0.6-4.7-1.6-6.6-1.6-6.6s0.3-0.3,1.1-2.3c0.6-1.7,1.6-6.8,1-11.5c-1,0.5-2.1-0.3-3.7-1.1    c-1.6-0.8-6.2-1.9-8.9,0c-1.1,0.8-2.1,4.2-3.6,4.7s-3.1-2.3-4.2-1.6c-0.1,0-0.2,0-0.2,0c-0.1,0-0.2,0.2-0.3,0.5    c-0.1,0.4-0.2,1,0,2c0.4,2.1,3.2,4,4,4.2s0.4,0.8,0.8,2c0.4,1.1,0.4,3.5,0.1,5.9c-0.1,0.4,0,0.8,0,1.2c0.3,1.9,1.8,3.5,3.3,4.4    c1.8,1.1,10.8,10.6,10.8,10.6S44.7,62.1,45.3,57.4z" fill="#FBD7C7"/><path d="M25.5,39c1.1-0.6,2.7,2.2,4.2,1.6s2.5-4,3.6-4.7c2.7-1.9,7.3-0.8,8.9,0c1.5,0.8,2.7,1.6,3.7,1.1    c0,0,0.1,0,0.1,0c0.4-0.2,0.6-1.9,0.1-3.9c-1.8,0.1-5.3,0.9-8.6,0.7c-4.1-0.3-5.5,0.2-7.6,0.4c-2,0.2-3.1,0.6-4.4,1.5    c-0.4,0.3-0.8,0.8-1.2,1.5c0.3,1.1,0.7,1.8,1,1.9C25.3,39,25.4,39,25.5,39z" fill="#762C07"/></g></g></svg>